{
  "accessors": [
    {
      "bufferView": 2,
      "componentType": 5126,
      "count": 1387,
      "max": [
        4.397768974304199,
        3.659960985183716,
        2.5499000549316406
      ],
      "min": [
        -4.378316879272461,
        -4.123705863952637,
        -3.525676965713501
      ],
      "type": "VEC3"
    },
    {
      "bufferView": 2,
      "byteOffset": 16644,
      "componentType": 5126,
      "count": 1387,
      "max": [
        0.9981864094734192,
        0.9999507665634155,
        0.9814704656600952
      ],
      "min": [
        -0.9981864094734192,
        -0.9999507665634155,
        -0.9871599078178406
      ],
      "type": "VEC3"
    },
    {
      "bufferView": 1,
      "componentType": 5126,
      "count": 1387,
      "max": [
        1.0,
        1.0
      ],
      "min": [
        0.0,
        0.0
      ],
      "type": "VEC2"
    },
    {
      "bufferView": 0,
      "componentType": 5125,
      "count": 5562,
      "type": "SCALAR"
    },
    {
      "bufferView": 2,
      "byteOffset": 33288,
      "componentType": 5126,
      "count": 3763,
      "max": [
        10.58942985534668,
        3.7400779724121094,
        2.4829978942871094
      ],
      "min": [
        -10.569978713989258,
        -0.6541079878807068,
        -3.6486430168151855
      ],
      "type": "VEC3"
    },
    {
      "bufferView": 2,
      "byteOffset": 78444,
      "componentType": 5126,
      "count": 3763,
      "max": [
        1.0,
        1.0,
        1.0
      ],
      "min": [
        -1.0,
        -1.0,
        -1.0
      ],
      "type": "VEC3"
    },
    {
      "bufferView": 1,
      "byteOffset": 11096,
      "componentType": 5126,
      "count": 3763,
      "max": [
        1.0,
        1.0
      ],
      "min": [
        0.0,
        0.0
      ],
      "type": "VEC2"
    },
    {
      "bufferView": 0,
      "byteOffset": 22248,
      "componentType": 5125,
      "count": 15606,
      "type": "SCALAR"
    },
    {
      "bufferView": 2,
      "byteOffset": 123600,
      "componentType": 5126,
      "count": 432,
      "max": [
        10.282794952392578,
        -0.30812498927116394,
        1.230545997619629
      ],
      "min": [
        -10.263343811035156,
        -0.5481280088424683,
        -3.067060947418213
      ],
      "type": "VEC3"
    },
    {
      "bufferView": 2,
      "byteOffset": 128784,
      "componentType": 5126,
      "count": 432,
      "max": [
        0.0,
        1.0,
        0.0
      ],
      "min": [
        0.0,
        -1.0,
        0.0
      ],
      "type": "VEC3"
    },
    {
      "bufferView": 1,
      "byteOffset": 41200,
      "componentType": 5126,
      "count": 432,
      "max": [
        0.9127529859542847,
        0.9997590184211731
      ],
      "min": [
        0.0002410000015515834,
        0.0002410000015515834
      ],
      "type": "VEC2"
    },
    {
      "bufferView": 0,
      "byteOffset": 84672,
      "componentType": 5125,
      "count": 1248,
      "type": "SCALAR"
    },
    {
      "bufferView": 2,
      "byteOffset": 133968,
      "componentType": 5126,
      "count": 2209,
      "max": [
        3.1997249126434326,
        1.9287309646606445,
        2.692997932434082
      ],
      "min": [
        -3.1802759170532227,
        -7.004571914672852,
        -4.108256816864014
      ],
      "type": "VEC3"
    },
    {
      "bufferView": 2,
      "byteOffset": 160476,
      "componentType": 5126,
      "count": 2209,
      "max": [
        1.0,
        0.9999426603317261,
        1.0
      ],
      "min": [
        -1.0,
        -0.9999427795410156,
        -1.0
      ],
      "type": "VEC3"
    },
    {
      "bufferView": 1,
      "byteOffset": 44656,
      "componentType": 5126,
      "count": 2209,
      "max": [
        1.0015250444412231,
        1.0
      ],
      "min": [
        -0.0015249999705702066,
        0.0
      ],
      "type": "VEC2"
    },
    {
      "bufferView": 0,
      "byteOffset": 89664,
      "componentType": 5125,
      "count": 9720,
      "type": "SCALAR"
    },
    {
      "bufferView": 2,
      "byteOffset": 186984,
      "componentType": 5126,
      "count": 793,
      "max": [
        2.8278839588165283,
        3.499682903289795,
        2.48478102684021
      ],
      "min": [
        -2.8084330558776855,
        -3.6282401084899902,
        -3.5634849071502686
      ],
      "type": "VEC3"
    },
    {
      "bufferView": 2,
      "byteOffset": 196500,
      "componentType": 5126,
      "count": 793,
      "max": [
        1.0,
        0.9216505289077759,
        0.9216505289077759
      ],
      "min": [
        -0.9216505289077759,
        -1.0,
        -0.9216505289077759
      ],
      "type": "VEC3"
    },
    {
      "bufferView": 1,
      "byteOffset": 62328,
      "componentType": 5126,
      "count": 793,
      "max": [
        1.0,
        1.0
      ],
      "min": [
        0.0,
        0.009999999776482582
      ],
      "type": "VEC2"
    },
    {
      "bufferView": 0,
      "byteOffset": 128544,
      "componentType": 5125,
      "count": 2406,
      "type": "SCALAR"
    }
  ],
  "asset": {
    "extras": {
      "author": "MOJackal (https://sketchfab.com/MOJackal)",
      "license": "CC-BY-4.0 (http://creativecommons.org/licenses/by/4.0/)",
      "source": "https://sketchfab.com/3d-models/satellite-51b687b2effb4bd9a1176a8d45b7157d",
      "title": "Satellite"
    },
    "generator": "Sketchfab-12.68.0",
    "version": "2.0"
  },
  "bufferViews": [
    {
      "buffer": 0,
      "byteLength": 138168,
      "name": "floatBufferViews",
      "target": 34963
    },
    {
      "buffer": 0,
      "byteLength": 68672,
      "byteOffset": 138168,
      "byteStride": 8,
      "name": "floatBufferViews",
      "target": 34962
    },
    {
      "buffer": 0,
      "byteLength": 206016,
      "byteOffset": 206840,
      "byteStride": 12,
      "name": "floatBufferViews",
      "target": 34962
    }
  ],
  "buffers": [
    {
      "byteLength": 412856,
      "uri": "scene.bin"
    }
  ],
  "materials": [
    {
      "doubleSided": true,
      "name": "d_gray",
      "pbrMetallicRoughness": {
        "baseColorFactor": [
          0.031064,
          0.031064,
          0.031064,
          1.0
        ],
        "roughnessFactor": 0.525631344
      }
    },
    {
      "doubleSided": true,
      "name": "l_gray",
      "pbrMetallicRoughness": {
        "baseColorFactor": [
          0.08714,
          0.08714,
          0.08714,
          1.0
        ],
        "metallicFactor": 0.3349747166,
        "roughnessFactor": 0.5498737682
      }
    },
    {
      "doubleSided": true,
      "name": "plate",
      "pbrMetallicRoughness": {
        "baseColorFactor": [
          0.3785139983878718,
          0.0760809265312806,
          0.0144549562455054,
          1.0
        ],
        "metallicFactor": 0.7167928985,
        "roughnessFactor": 0.1592171409
      }
    },
    {
      "doubleSided": true,
      "name": "solar_panels",
      "pbrMetallicRoughness": {
        "baseColorFactor": [
          0.0439821069276672,
          0.20648031989485516,
          0.40682823024284553,
          1.0
        ],
        "roughnessFactor": 0.0
      }
    },
    {
      "doubleSided": true,
      "name": "white",
      "pbrMetallicRoughness": {
        "baseColorFactor": [
          0.44798,
          0.44798,
          0.44798,
          1.0
        ],
        "metallicFactor": 0.6804292621,
        "roughnessFactor": 0.40441922269999997
      }
    }
  ],
  "meshes": [
    {
      "name": "Object_0",
      "primitives": [
        {
          "attributes": {
            "NORMAL": 1,
            "POSITION": 0,
            "TEXCOORD_0": 2
          },
          "indices": 3,
          "material": 0,
          "mode": 4
        }
      ]
    },
    {
      "name": "Object_1",
      "primitives": [
        {
          "attributes": {
            "NORMAL": 5,
            "POSITION": 4,
            "TEXCOORD_0": 6
          },
          "indices": 7,
          "material": 1,
          "mode": 4
        }
      ]
    },
    {
      "name": "Object_2",
      "primitives": [
        {
          "attributes": {
            "NORMAL": 9,
            "POSITION": 8,
            "TEXCOORD_0": 10
          },
          "indices": 11,
          "material": 3,
          "mode": 4
        }
      ]
    },
    {
      "name": "Object_3",
      "primitives": [
        {
          "attributes": {
            "NORMAL": 13,
            "POSITION": 12,
            "TEXCOORD_0": 14
          },
          "indices": 15,
          "material": 4,
          "mode": 4
        }
      ]
    },
    {
      "name": "Object_4",
      "primitives": [
        {
          "attributes": {
            "NORMAL": 17,
            "POSITION": 16,
            "TEXCOORD_0": 18
          },
          "indices": 19,
          "material": 2,
          "mode": 4
        }
      ]
    }
  ],
  "nodes": [
    {
      "children": [
        1
      ],
      "matrix": [
        1.0,
        0.0,
        0.0,
        0.0,
        0.0,
        2.220446049250313e-16,
        -1.0,
        0.0,
        0.0,
        1.0,
        2.220446049250313e-16,
        0.0,
        0.0,
        0.0,
        0.0,
        1.0
      ],
      "name": "Sketchfab_model"
    },
    {
      "children": [
        2,
        3,
        4,
        5,
        6
      ],
      "name": "Satellite.obj.cleaner.materialmerger.gles"
    },
    {
      "mesh": 0,
      "name": "Object_2"
    },
    {
      "mesh": 1,
      "name": "Object_3"
    },
    {
      "mesh": 2,
      "name": "Object_4"
    },
    {
      "mesh": 3,
      "name": "Object_5"
    },
    {
      "mesh": 4,
      "name": "Object_6"
    }
  ],
  "scene": 0,
  "scenes": [
    {
      "name": "Sketchfab_Scene",
      "nodes": [
        0
      ]
    }
  ]
}
